{
    "asset" : {
        "generator" : "Khronos glTF Blender I/O v3.3.32",
        "version" : "2.0"
    },
    "scene" : 0,
    "scenes" : [
        {
            "name" : "Scene",
            "nodes" : [
                2
            ]
        }
    ],
    "nodes" : [
        {
            "mesh" : 0,
            "name" : "Gouvernaille",
            "translation" : [
                -6.449878856074065e-05,
                -8.0108642578125e-05,
                0.0003147125244140625
            ]
        },
        {
            "mesh" : 1,
            "name" : "H\u00e9lice",
            "translation" : [
                -194.044189453125,
                0.028125762939453125,
                -4.061761856079102
            ]
        },
        {
            "children" : [
                0,
                1
            ],
            "mesh" : 2,
            "name" : "Miss-Veedoh",
            "rotation" : [
                -0.3788664638996124,
                -0.588528573513031,
                -0.36225083470344543,
                0.615523099899292
            ],
            "scale" : [
                0.002122721867635846,
                0.0021227216348052025,
                0.0021227216348052025
            ],
            "translation" : [
                -4.997722625732422,
                16.234899520874023,
                3.194424867630005
            ]
        }
    ],
    "animations" : [
        {
            "channels" : [
                {
                    "sampler" : 0,
                    "target" : {
                        "node" : 2,
                        "path" : "translation"
                    }
                },
                {
                    "sampler" : 1,
                    "target" : {
                        "node" : 2,
                        "path" : "rotation"
                    }
                },
                {
                    "sampler" : 2,
                    "target" : {
                        "node" : 2,
                        "path" : "scale"
                    }
                }
            ],
            "name" : "Action.022",
            "samplers" : [
                {
                    "input" : 12,
                    "interpolation" : "LINEAR",
                    "output" : 13
                },
                {
                    "input" : 12,
                    "interpolation" : "LINEAR",
                    "output" : 14
                },
                {
                    "input" : 12,
                    "interpolation" : "LINEAR",
                    "output" : 15
                }
            ]
        },
        {
            "channels" : [
                {
                    "sampler" : 0,
                    "target" : {
                        "node" : 0,
                        "path" : "translation"
                    }
                },
                {
                    "sampler" : 1,
                    "target" : {
                        "node" : 0,
                        "path" : "rotation"
                    }
                },
                {
                    "sampler" : 2,
                    "target" : {
                        "node" : 0,
                        "path" : "scale"
                    }
                }
            ],
            "name" : "Action.023",
            "samplers" : [
                {
                    "input" : 12,
                    "interpolation" : "LINEAR",
                    "output" : 16
                },
                {
                    "input" : 12,
                    "interpolation" : "LINEAR",
                    "output" : 17
                },
                {
                    "input" : 12,
                    "interpolation" : "LINEAR",
                    "output" : 18
                }
            ]
        },
        {
            "channels" : [
                {
                    "sampler" : 0,
                    "target" : {
                        "node" : 1,
                        "path" : "translation"
                    }
                },
                {
                    "sampler" : 1,
                    "target" : {
                        "node" : 1,
                        "path" : "rotation"
                    }
                },
                {
                    "sampler" : 2,
                    "target" : {
                        "node" : 1,
                        "path" : "scale"
                    }
                }
            ],
            "name" : "Action.024",
            "samplers" : [
                {
                    "input" : 12,
                    "interpolation" : "LINEAR",
                    "output" : 19
                },
                {
                    "input" : 12,
                    "interpolation" : "LINEAR",
                    "output" : 20
                },
                {
                    "input" : 12,
                    "interpolation" : "LINEAR",
                    "output" : 21
                }
            ]
        }
    ],
    "materials" : [
        {
            "name" : "Miss-veedoh",
            "normalTexture" : {
                "index" : 0
            },
            "occlusionTexture" : {
                "index" : 1
            },
            "pbrMetallicRoughness" : {
                "baseColorTexture" : {
                    "index" : 2
                },
                "metallicRoughnessTexture" : {
                    "index" : 1
                }
            }
        }
    ],
    "meshes" : [
        {
            "name" : "Miss-Veedoh.002",
            "primitives" : [
                {
                    "attributes" : {
                        "POSITION" : 0,
                        "NORMAL" : 1,
                        "TEXCOORD_0" : 2
                    },
                    "indices" : 3,
                    "material" : 0
                }
            ]
        },
        {
            "name" : "Miss-Veedoh.001",
            "primitives" : [
                {
                    "attributes" : {
                        "POSITION" : 4,
                        "NORMAL" : 5,
                        "TEXCOORD_0" : 6
                    },
                    "indices" : 7,
                    "material" : 0
                }
            ]
        },
        {
            "name" : "Miss-Veedoh",
            "primitives" : [
                {
                    "attributes" : {
                        "POSITION" : 8,
                        "NORMAL" : 9,
                        "TEXCOORD_0" : 10
                    },
                    "indices" : 11,
                    "material" : 0
                }
            ]
        }
    ],
    "textures" : [
        {
            "sampler" : 0,
            "source" : 0
        },
        {
            "sampler" : 0,
            "source" : 1
        },
        {
            "sampler" : 0,
            "source" : 2
        }
    ],
    "images" : [
        {
            "bufferView" : 4,
            "mimeType" : "image/jpeg",
            "name" : "Miss-veedoh_normal",
            "uri" : "../../../../Desktop/Avion%20original/Miss-veedoh_normal.jpg"
        },
        {
            "bufferView" : 5,
            "mimeType" : "image/jpeg",
            "name" : "Miss-veedoh_occlusionRoughnessMetallic",
            "uri" : "../../../../Desktop/Avion%20original/Miss-veedoh_occlusionRoughnessMetallic.jpg"
        },
        {
            "bufferView" : 6,
            "mimeType" : "image/jpeg",
            "name" : "Miss-veedoh_baseColor",
            "uri" : "../../../../Desktop/Avion%20original/Miss-veedoh_baseColor.jpg"
        }
    ],
    "accessors" : [
        {
            "bufferView" : 0,
            "componentType" : 5126,
            "count" : 226,
            "max" : [
                200.53797912597656,
                1.0000362396240234,
                77.96723937988281
            ],
            "min" : [
                148.31893920898438,
                -0.9999943375587463,
                -8.485214233398438
            ],
            "type" : "VEC3"
        },
        {
            "bufferView" : 1,
            "componentType" : 5126,
            "count" : 226,
            "type" : "VEC3"
        },
        {
            "bufferView" : 2,
            "componentType" : 5126,
            "count" : 226,
            "type" : "VEC2"
        },
        {
            "bufferView" : 3,
            "componentType" : 5123,
            "count" : 330,
            "type" : "SCALAR"
        },
        {
            "bufferView" : 7,
            "componentType" : 5126,
            "count" : 409,
            "max" : [
                4.985626220703125,
                4.594751358032227,
                59.105525970458984
            ],
            "min" : [
                -5.673858642578125,
                -4.641330718994141,
                -60.24247360229492
            ],
            "type" : "VEC3"
        },
        {
            "bufferView" : 8,
            "componentType" : 5126,
            "count" : 409,
            "type" : "VEC3"
        },
        {
            "bufferView" : 9,
            "componentType" : 5126,
            "count" : 409,
            "type" : "VEC2"
        },
        {
            "bufferView" : 10,
            "componentType" : 5123,
            "count" : 1470,
            "type" : "SCALAR"
        },
        {
            "bufferView" : 11,
            "componentType" : 5126,
            "count" : 5142,
            "max" : [
                184.1736297607422,
                331.10736083984375,
                50.88386917114258
            ],
            "min" : [
                -190.37318420410156,
                -331.10736083984375,
                -77.9672622680664
            ],
            "type" : "VEC3"
        },
        {
            "bufferView" : 12,
            "componentType" : 5126,
            "count" : 5142,
            "type" : "VEC3"
        },
        {
            "bufferView" : 13,
            "componentType" : 5126,
            "count" : 5142,
            "type" : "VEC2"
        },
        {
            "bufferView" : 14,
            "componentType" : 5123,
            "count" : 15534,
            "type" : "SCALAR"
        },
        {
            "bufferView" : 15,
            "componentType" : 5126,
            "count" : 255,
            "max" : [
                10.625
            ],
            "min" : [
                0.041666666666666664
            ],
            "type" : "SCALAR"
        },
        {
            "bufferView" : 16,
            "componentType" : 5126,
            "count" : 255,
            "type" : "VEC3"
        },
        {
            "bufferView" : 17,
            "componentType" : 5126,
            "count" : 255,
            "type" : "VEC4"
        },
        {
            "bufferView" : 18,
            "componentType" : 5126,
            "count" : 255,
            "type" : "VEC3"
        },
        {
            "bufferView" : 19,
            "componentType" : 5126,
            "count" : 255,
            "type" : "VEC3"
        },
        {
            "bufferView" : 20,
            "componentType" : 5126,
            "count" : 255,
            "type" : "VEC4"
        },
        {
            "bufferView" : 21,
            "componentType" : 5126,
            "count" : 255,
            "type" : "VEC3"
        },
        {
            "bufferView" : 22,
            "componentType" : 5126,
            "count" : 255,
            "type" : "VEC3"
        },
        {
            "bufferView" : 23,
            "componentType" : 5126,
            "count" : 255,
            "type" : "VEC4"
        },
        {
            "bufferView" : 24,
            "componentType" : 5126,
            "count" : 255,
            "type" : "VEC3"
        }
    ],
    "bufferViews" : [
        {
            "buffer" : 0,
            "byteLength" : 2712,
            "byteOffset" : 0,
            "target" : 34962
        },
        {
            "buffer" : 0,
            "byteLength" : 2712,
            "byteOffset" : 2712,
            "target" : 34962
        },
        {
            "buffer" : 0,
            "byteLength" : 1808,
            "byteOffset" : 5424,
            "target" : 34962
        },
        {
            "buffer" : 0,
            "byteLength" : 660,
            "byteOffset" : 7232,
            "target" : 34963
        },
        {
            "buffer" : 0,
            "byteLength" : 90,
            "byteOffset" : 7892
        },
        {
            "buffer" : 0,
            "byteLength" : 90,
            "byteOffset" : 7984
        },
        {
            "buffer" : 0,
            "byteLength" : 90,
            "byteOffset" : 8076
        },
        {
            "buffer" : 0,
            "byteLength" : 4908,
            "byteOffset" : 8168,
            "target" : 34962
        },
        {
            "buffer" : 0,
            "byteLength" : 4908,
            "byteOffset" : 13076,
            "target" : 34962
        },
        {
            "buffer" : 0,
            "byteLength" : 3272,
            "byteOffset" : 17984,
            "target" : 34962
        },
        {
            "buffer" : 0,
            "byteLength" : 2940,
            "byteOffset" : 21256,
            "target" : 34963
        },
        {
            "buffer" : 0,
            "byteLength" : 61704,
            "byteOffset" : 24196,
            "target" : 34962
        },
        {
            "buffer" : 0,
            "byteLength" : 61704,
            "byteOffset" : 85900,
            "target" : 34962
        },
        {
            "buffer" : 0,
            "byteLength" : 41136,
            "byteOffset" : 147604,
            "target" : 34962
        },
        {
            "buffer" : 0,
            "byteLength" : 31068,
            "byteOffset" : 188740,
            "target" : 34963
        },
        {
            "buffer" : 0,
            "byteLength" : 1020,
            "byteOffset" : 219808
        },
        {
            "buffer" : 0,
            "byteLength" : 3060,
            "byteOffset" : 220828
        },
        {
            "buffer" : 0,
            "byteLength" : 4080,
            "byteOffset" : 223888
        },
        {
            "buffer" : 0,
            "byteLength" : 3060,
            "byteOffset" : 227968
        },
        {
            "buffer" : 0,
            "byteLength" : 3060,
            "byteOffset" : 231028
        },
        {
            "buffer" : 0,
            "byteLength" : 4080,
            "byteOffset" : 234088
        },
        {
            "buffer" : 0,
            "byteLength" : 3060,
            "byteOffset" : 238168
        },
        {
            "buffer" : 0,
            "byteLength" : 3060,
            "byteOffset" : 241228
        },
        {
            "buffer" : 0,
            "byteLength" : 4080,
            "byteOffset" : 244288
        },
        {
            "buffer" : 0,
            "byteLength" : 3060,
            "byteOffset" : 248368
        }
    ],
    "samplers" : [
        {
            "magFilter" : 9729,
            "minFilter" : 9987
        }
    ],
    "buffers" : [
        {
            "byteLength" : 251428,
            "uri" : "data:application/octet-stream;base64,"
        }
    ]
}
